<svg width="27" height="28" viewBox="0 0 27 28" fill="none"><path fill-rule="evenodd" clip-rule="evenodd" d="M5.4999 0.729736H21.5001C24.5376 0.729736 27 3.19213 27 6.22964V22.2298C27 25.2673 24.5376 27.7297 21.5001 27.7297H5.4999C2.46239 27.7297 0 25.2673 0 22.2298V6.22964C0 3.19213 2.46239 0.729736 5.4999 0.729736ZM12.98 13.7472C13.8521 13.8136 14.5319 14.1209 15.0212 14.6673V14.6679C15.512 15.2127 15.7572 15.9444 15.7572 16.8543C15.7572 17.5126 15.62 18.0877 15.3436 18.5867C15.0692 19.084 14.6756 19.4712 14.1604 19.7433C13.7441 19.9658 13.2289 20.1278 12.6155 20.2245C12.001 20.3179 10.9966 20.3665 9.6039 20.3665H6.13656V8.09392H9.50184C10.8859 8.09392 11.8503 8.13875 12.4016 8.22623C12.9503 8.31695 13.4206 8.4703 13.8164 8.68792C14.269 8.93902 14.6129 9.27437 14.8527 9.69341C15.0865 10.1151 15.2069 10.6028 15.2069 11.1546C15.2069 11.8512 15.0309 12.4053 14.6761 12.813C14.3197 13.2261 13.756 13.5355 12.98 13.7472ZM9.96192 10.8144H9.24372H9.24318V13.2768H9.91116C10.7352 13.2768 11.2984 13.1856 11.6073 13.0058C11.9124 12.8227 12.0663 12.5273 12.0663 12.0667C12.0663 11.6061 11.9216 11.2821 11.6375 11.0947C11.3497 10.9084 10.7919 10.8144 9.96192 10.8144ZM10.4128 18.1514C11.2028 18.1514 11.7661 18.0531 12.0928 17.8523V17.8528C12.4227 17.653 12.5863 17.3209 12.5863 16.8581C12.5863 16.3408 12.4367 15.9806 12.1338 15.7765C11.8357 15.5724 11.2747 15.4703 10.463 15.4703H9.24372V18.1514H10.4128ZM19.3093 17.257C18.4502 17.257 17.7547 17.9525 17.7547 18.8111C17.7547 19.6697 18.4507 20.3658 19.3093 20.3658C20.1679 20.3658 20.8634 19.6697 20.8634 18.8111C20.8634 17.9525 20.1668 17.257 19.3093 17.257ZM17.9593 8.09318H20.6593V16.2753H17.9593V8.09318Z" fill="currentColor"></path></svg>